<svg xmlns="http://www.w3.org/2000/svg" width="301.831" height="272.069" viewBox="0 0 301.831 272.069"><defs><style>.a{fill:#d5d5d5;}.b{fill:#ff06d7;}.c{fill:#1abcfe;}.d{fill:#9d49fe;}.e{fill:none;stroke:#d5d5d5;stroke-linecap:round;stroke-miterlimit:10;stroke-width:4.835px;}.f{fill:#999;}</style></defs><g transform="translate(-532.333 -272.196)"><path class="a" d="M-3409.249,4740.059h-4.869v33.206h4.869a16.6,16.6,0,0,0,16.6-16.6A16.6,16.6,0,0,0-3409.249,4740.059Z" transform="translate(3984 -4229)"/><path class="a" d="M-3362.114,4740.059h-4.87v33.206h4.87a16.6,16.6,0,0,0,16.6-16.6A16.6,16.6,0,0,0-3362.114,4740.059Z" transform="translate(3984 -4229)"/><path class="a" d="M-3266.6,4740.059h-4.869v33.206h4.869a16.6,16.6,0,0,0,16.6-16.6A16.6,16.6,0,0,0-3266.6,4740.059Z" transform="translate(3984 -4229)"/><path class="a" d="M-3219.465,4740.059h-4.87v33.206h4.87a16.6,16.6,0,0,0,16.6-16.6A16.6,16.6,0,0,0-3219.465,4740.059Z" transform="translate(3984 -4229)"/><path class="b" d="M-3276.977,4506.262l21.324-.786,9.828,35.871,30.859-25.061,15.032,13.174-41.416,33.489-9.979,46.5-18.132-4.275,8.184-46.043Z" transform="translate(3984 -4229)"/><path class="c" d="M-3298.579,4506.074c-13.327-7-27.346-5.414-41.4-1.778-12.7,3.287-22.28,5.9-22.28,5.9l32.359,108.7,21.959-6.192-10.614-37.778s24.177-4.973,32.432-22.073S-3283.908,4513.78-3298.579,4506.074ZM-3302,4552.44l-15.77-5.2-10,11.895-.7-16.583-14.343-7.556,15.462-4.058,3.289-15.438,7.626,13.409,16.068-2.029-9.282,11.4Z" transform="translate(3984 -4229)"/><path class="b" d="M-3399.865,4637.442l-8.488-91.638,20.683-3.377,24.446,55.429,3.931-57.591,19.562-2.455,24.245,80.465-20.486,7.274-9.4-33.521-4.506,35.933-16.491,3.21-17.044-34.027,3.844,38.18Z" transform="translate(3984 -4229)"/><path class="c" d="M-3383.142,4588.878l-14.38,7.75s5.9,14.9-2.482,19.264c-7.646,3.98-14.742-6.707-18.917-14.994l32.9-20.189a61.84,61.84,0,0,0-15.558-25.112c-10.6-10.307-25.016-10.2-33.665-5.088-12.406,7.331-21.537,25.923-7.532,56.733s37.787,35.134,48.954,29.551C-3380.9,4630.331-3375.013,4615.825-3383.142,4588.878Zm-42.426-17.79c6.388-3.692,12.113,7.256,12.113,7.256l-12.556,7.682S-3431.522,4574.529-3425.568,4571.088Z" transform="translate(3984 -4229)"/><path class="d" d="M-3308.723,4542.231l.59,17.81h22.21l-.393,64.86h17.3l.752-64.86h20.279v-17.81Z" transform="translate(3984 -4229)"/><line class="e" y1="84.401" x2="29.764" transform="translate(685.128 364.124)"/><line class="e" y1="84.401" x2="33.633" transform="translate(709.72 364.124)"/><line class="e" y2="73.782" transform="translate(620.314 364.124)"/><line class="e" x1="8.722" y2="79.467" transform="translate(654.554 364.124)"/><path class="e" d="M-3407.882,4593.124s4.383,54.124,11.421,68.652" transform="translate(3984 -4229)"/><path class="e" d="M-3214.06,4593.124h-234.535s8.739,36.131,13.553,48.97a54.822,54.822,0,0,0,9.081,14.921l127.089,20.51h47.406Z" transform="translate(3984 -4229)"/><path class="e" d="M-3440.359,4624.9l156.369,10.423h51.227" transform="translate(3984 -4229)"/><path class="e" d="M-3298.872,4677.525l38.084,33.727a12.224,12.224,0,0,1-8.1,21.375h-161.829" transform="translate(3984 -4229)"/><path class="e" d="M-3251.466,4677.525l38.084,33.727a12.224,12.224,0,0,1-8.1,21.375h-47.406" transform="translate(3984 -4229)"/><path class="e" d="M-3214.06,4593.124s6.852-15.365,21.1-25.781a55.126,55.126,0,0,1,34.526-10.556" transform="translate(3984 -4229)"/><circle class="f" cx="16.603" cy="16.603" r="16.603" transform="translate(553.279 511.059)"/><path class="a" d="M-3428.474,4740.059v5.052l9.9,14.582a5.382,5.382,0,0,0,4.452,2.355,5.386,5.386,0,0,0,5.386-5.386v-16.6Z" transform="translate(3984 -4229)"/><path class="a" d="M3.323,0h9.093a3.323,3.323,0,0,1,3.323,3.323V5.893a0,0,0,0,1,0,0H0a0,0,0,0,1,0,0V3.323A3.323,3.323,0,0,1,3.323,0Z" transform="translate(557.528 506.01)"/><circle class="f" cx="16.603" cy="16.603" r="16.603" transform="translate(600.413 511.059)"/><path class="a" d="M3.323,0h9.093a3.323,3.323,0,0,1,3.323,3.323V5.893a0,0,0,0,1,0,0H0a0,0,0,0,1,0,0V3.323A3.323,3.323,0,0,1,3.323,0Z" transform="translate(604.662 506.01)"/><circle class="f" cx="16.603" cy="16.603" r="16.603" transform="translate(695.928 511.059)"/><path class="a" d="M3.323,0h9.093a3.323,3.323,0,0,1,3.323,3.323V5.893a0,0,0,0,1,0,0H0a0,0,0,0,1,0,0V3.323A3.323,3.323,0,0,1,3.323,0Z" transform="translate(700.177 506.01)"/><circle class="f" cx="16.603" cy="16.603" r="16.603" transform="translate(743.063 511.059)"/><path class="a" d="M3.323,0h9.093a3.323,3.323,0,0,1,3.323,3.323V5.893a0,0,0,0,1,0,0H0a0,0,0,0,1,0,0V3.323A3.323,3.323,0,0,1,3.323,0Z" transform="translate(747.311 506.01)"/><path class="a" d="M-3158.435,4548.273h-56.983v17.2h56.983a8.6,8.6,0,0,0,8.6-8.6A8.6,8.6,0,0,0-3158.435,4548.273Z" transform="translate(3984 -4229)"/><circle class="f" cx="8.599" cy="8.599" r="8.599" transform="translate(759.983 319.273)"/><path class="e" d="M-3269.108,4593.124s5.715-15.822,19.164-25.781a55.934,55.934,0,0,1,34.526-10.556" transform="translate(3984 -4229)"/><path class="a" d="M-3381.339,4740.059v5.052l9.9,14.582a5.379,5.379,0,0,0,4.451,2.355,5.386,5.386,0,0,0,5.386-5.386v-16.6Z" transform="translate(3984 -4229)"/><path class="a" d="M-3285.825,4740.059v5.052l9.9,14.582a5.382,5.382,0,0,0,4.452,2.355,5.386,5.386,0,0,0,5.386-5.386v-16.6Z" transform="translate(3984 -4229)"/><path class="a" d="M-3238.69,4740.059v5.052l9.9,14.582a5.379,5.379,0,0,0,4.451,2.355,5.387,5.387,0,0,0,5.387-5.386v-16.6Z" transform="translate(3984 -4229)"/></g></svg>